<?xml version="1.0" encoding="UTF-8"?>
<svg width="32px" height="32px" viewBox="0 0 32 32" version="1.1" xmlns="http://www.w3.org/2000/svg" xmlns:xlink="http://www.w3.org/1999/xlink">
    <title>logo/salesforce</title>
    <defs>
        <polygon id="path-1" points="-2.17554732e-16 0 26 0 26 18 -3.08148791e-33 18"></polygon>
    </defs>
    <g id="logo/salesforce" stroke="none" stroke-width="1" fill="none" fill-rule="evenodd">
        <g id="Clipped" transform="translate(3.000000, 8.000000)">
            <mask id="mask-2" fill="white">
                <use xlink:href="#path-1"></use>
            </mask>
            <g id="a"></g>
            <path d="M10.7957353,1.97052632 C11.635,1.10463158 12.8030882,0.568421053 14.0935294,0.568421053 C15.8141176,0.568421053 17.3052941,1.51578947 18.1082353,2.92736842 C18.8209714,2.61158672 19.5929646,2.44855543 20.3736765,2.44894737 C23.4707353,2.44894737 25.9847059,4.95947368 25.9847059,8.05736842 C25.9847059,11.1552632 23.4707353,13.6657895 20.3736765,13.6657895 C19.9951471,13.6657895 19.6261765,13.6280842 19.2648529,13.5568421 C18.5622794,14.7978947 17.2192647,15.6410526 15.6898529,15.6410526 C15.0671769,15.6422731 14.4524733,15.5022802 13.8927941,15.2317895 C13.1806618,16.8896842 11.5222059,18.0549474 9.59132353,18.0549474 C7.57441176,18.0549474 5.86338235,16.7949474 5.20382353,15.0233684 C4.91026929,15.0847692 4.61104973,15.1156312 4.31102941,15.1154526 C1.91176471,15.1154526 -0.0286764706,13.1638737 -0.0286764706,10.7670316 C-0.0286764706,9.15650526 0.845,7.7544 2.14117647,6.99650526 C1.86619224,6.36868494 1.72464783,5.69145335 1.72536765,5.00703158 C1.72536765,2.24071579 3.99080882,0.00492631579 6.78198529,0.00492631579 C8.41654412,0.00492631579 9.87904412,0.777031579 10.7966912,1.97545263" id="路径" fill="#00A1E0" fill-rule="nonzero" mask="url(#mask-2)"></path>
        </g>
    </g>
</svg>